PathFileType	4	(X/Y/Z)	C:\Users\Basilio\Documents\Thesis Gigler\squatting_fais\c3dfiles\038\SJ_pre1\markers_experimental.trc
DataRate	CameraRate	NumFrames	NumMarkers	Units	OrigDataRate	OrigDataStartFrame	OrigNumFrames
200.000000	200.000000	4	61	mm	200.000000	341	1366
Frame#	Time	FHD			LBHD			RBHD			C7			T10			CLAV			LSHO			LUUPA			LMUPA			LDUPA			LLEP			LMEP			LRAD			LUL			LRFIN			RSHO			RUPA1			RMUPA			RDUPA			RLEP			RMEP			RRAD			RUL			RUFIN			LASI			RASI			USACR			LSACR			RSACR			LTHI1			LTHI2			LTHI3			LTHI4			LLFC			LMFC			LTIB1			LTIB2			LTIB3			LTIB4			LLMAL			LMMAL			LHEE			LMT1			LMT2			LMT5			RTHI			RTHI2			RTHI3			RTHI4			RLFC			RMFC			RTIB1			RTIB2			RTIB3			RTIB4			RLMAL			RMMAL			RHEE			RMT1			RMT2			RMT5			
		X1	Y1	Z1	X2	Y2	Z2	X3	Y3	Z3	X4	Y4	Z4	X5	Y5	Z5	X6	Y6	Z6	X7	Y7	Z7	X8	Y8	Z8	X9	Y9	Z9	X10	Y10	Z10	X11	Y11	Z11	X12	Y12	Z12	X13	Y13	Z13	X14	Y14	Z14	X15	Y15	Z15	X16	Y16	Z16	X17	Y17	Z17	X18	Y18	Z18	X19	Y19	Z19	X20	Y20	Z20	X21	Y21	Z21	X22	Y22	Z22	X23	Y23	Z23	X24	Y24	Z24	X25	Y25	Z25	X26	Y26	Z26	X27	Y27	Z27	X28	Y28	Z28	X29	Y29	Z29	X30	Y30	Z30	X31	Y31	Z31	X32	Y32	Z32	X33	Y33	Z33	X34	Y34	Z34	X35	Y35	Z35	X36	Y36	Z36	X37	Y37	Z37	X38	Y38	Z38	X39	Y39	Z39	X40	Y40	Z40	X41	Y41	Z41	X42	Y42	Z42	X43	Y43	Z43	X44	Y44	Z44	X45	Y45	Z45	X46	Y46	Z46	X47	Y47	Z47	X48	Y48	Z48	X49	Y49	Z49	X50	Y50	Z50	X51	Y51	Z51	X52	Y52	Z52	X53	Y53	Z53	X54	Y54	Z54	X55	Y55	Z55	X56	Y56	Z56	X57	Y57	Z57	X58	Y58	Z58	X59	Y59	Z59	X60	Y60	Z60	X61	Y61	Z61	

342	1.705	-56.70344161987306	1472.390258789063	-924.9450683593752	-213.9712982177735	1413.1376953125	-978.6367797851565	-198.2393341064454	1403.875732421875	-833.507507324219	-262.5556945800782	1282.012084960938	-898.0952758789065	-389.0220947265626	1029.866455078125	-883.940856933594	-139.1695251464844	1200.419189453125	-918.2117309570315	-174.0917053222657	1254.3173828125	-1078.46337890625	-237.7945861816407	1116.367431640625	-1265.86572265625	-212.1746368408204	1073.607421875	-1251.181518554688	-239.0599517822266	1055.7763671875	-1300.58251953125	-246.8271942138672	993.0987548828127	-1320.294921875	-330.1764221191407	997.5390625000002	-1317.5234375	-352.9020080566407	787.1486816406252	-1131.177490234375	-297.8139953613282	751.2337036132814	-1163.369873046875	-331.6412658691407	779.5856933593752	-1063.234497070313	-138.1253662109375	1240.51611328125	-754.5124511718751	-139.383285522461	1097.752197265625	-580.7023315429689	-134.2228240966797	1051.70751953125	-594.4450683593751	-143.9977416992188	1044.58837890625	-535.7871093750001	-151.5476379394532	973.7039184570315	-506.688446044922	-232.5991973876954	980.4627075195315	-485.0240478515626	-272.5676574707032	781.3785400390627	-666.0443115234376	-212.7575073242188	744.3270263671876	-653.0114135742189	-263.3328857421876	767.5518188476564	-738.8433227539064	-343.5539855957032	799.5480957031252	-1003.709838867188	-310.7657470703126	811.3711547851565	-760.1446533203126	-469.1145019531251	905.7759399414065	-869.3590087890627	-497.1590270996095	881.9292602539065	-893.245788574219	-485.7622070312501	882.4946899414065	-836.5012817382815	-305.3404235839844	626.1495361328126	-1163.554443359375	-234.3601684570313	589.2352294921876	-1198.039306640625	-196.8341674804688	614.0417480468751	-1179.246704101563	-224.8351745605469	529.1608886718751	-1203.466552734375	-195.756820678711	479.9224548339845	-1209.805786132813	-152.5598449707032	464.0094299316407	-1112.346435546875	-183.5759887695313	293.5737609863282	-1148.04833984375	-258.4579162597657	270.2417602539063	-1192.226440429688	-220.8066558837891	254.8092346191407	-1173.582763671875	-247.7361297607422	184.7798919677735	-1132.402099609375	-372.1573486328126	84.19390106201173	-1121.23193359375	-312.5589904785157	95.6256561279297	-1061.985229492188	-406.3675537109376	43.24638366699219	-1056.810302734375	-205.5917358398438	45.98447418212891	-1124.618408203125	-216.5701293945313	50.27487182617189	-1173.618041992188	-271.1754760742188	30.87200164794923	-1205.9560546875	-300.8810119628907	630.0073242187501	-639.1196899414064	-243.0145568847657	606.6378173828126	-616.5770874023439	-214.7226562500001	627.0926513671876	-616.2741088867189	-218.4852447509766	523.4497680664064	-618.3642578125001	-143.0040588378907	436.9800415039064	-606.8012695312501	-117.2978210449219	441.2144165039064	-712.3659057617189	-150.8598785400391	269.8235473632813	-648.1058349609376	-262.2172241210938	230.0262756347657	-644.2482299804689	-217.6140594482422	215.0013427734376	-647.1719970703126	-220.7048950195313	167.1463928222657	-680.4769287109376	-336.5234375000001	87.37821197509767	-687.7342529296876	-284.6156005859376	89.67815399169923	-756.2102050781251	-379.3111572265626	40.15559005737305	-770.8829345703127	-181.2733306884766	47.77658843994141	-677.4787597656251	-201.0834197998047	52.7435989379883	-635.3961181640626	-258.2101135253907	35.27048873901368	-609.0508422851564	
343	1.71	-56.13339996337892	1471.309326171875	-925.0708007812502	-213.5633697509766	1411.516845703125	-978.6089477539065	-197.4142608642579	1402.46484375	-833.4490966796877	-261.8959045410157	1280.838134765625	-898.0733642578127	-388.9407043457032	1028.793334960938	-883.9730224609377	-138.7880401611328	1198.986694335938	-918.224792480469	-173.3956604003907	1253.076293945313	-1078.354858398438	-237.3475341796876	1115.310180664063	-1265.866455078125	-211.4268035888672	1072.848266601563	-1251.267578125	-238.8680114746094	1054.770263671875	-1300.754638671875	-246.8822937011719	992.2346801757815	-1320.327270507813	-329.8032226562501	996.587341308594	-1317.704223632813	-353.3315124511719	786.4916992187502	-1131.17822265625	-298.5176696777344	750.7036743164064	-1163.216552734375	-332.0044860839844	779.0484619140627	-1063.234741210938	-137.6652374267578	1239.1982421875	-754.5404663085939	-139.0166473388672	1096.510131835938	-580.6960449218751	-133.7848358154297	1050.34130859375	-594.2679443359376	-143.4840698242188	1043.458251953125	-535.5426025390626	-151.1473083496094	972.644226074219	-506.5679931640626	-232.189437866211	979.3697509765627	-484.9735107421876	-272.6660156250001	780.519958496094	-666.0017700195314	-212.8699798583985	743.5379028320314	-653.1603393554689	-262.9943847656251	766.9024658203126	-738.2786865234376	-343.6566162109376	798.6542968750002	-1003.704223632813	-310.8718872070313	810.286560058594	-760.1660156250001	-469.0210571289064	904.6699829101565	-869.4451904296877	-497.4872131347657	880.8789672851565	-893.2385864257815	-485.9434509277345	881.4918212890627	-836.4826660156252	-305.5646972656251	625.6975097656251	-1163.621459960938	-234.4691925048829	588.9674682617189	-1198.1962890625	-196.9901123046876	613.8308105468751	-1179.327270507813	-224.8302154541016	528.8902587890626	-1203.708862304688	-195.7016601562501	479.7934875488282	-1210.053100585938	-152.4622344970703	463.7758789062501	-1112.69287109375	-183.5192108154297	293.5230407714844	-1148.279907226563	-258.3826599121094	270.0569458007813	-1192.378662109375	-220.6967163085938	255.0111389160157	-1173.777587890625	-247.6917266845704	184.7904510498047	-1132.3798828125	-372.1372985839844	84.1589813232422	-1121.288208007813	-312.5554504394532	95.63506317138673	-1062.017456054688	-406.3684082031251	43.25307083129884	-1056.815185546875	-205.587875366211	45.98458099365235	-1124.556640625	-216.5651092529297	50.28400802612306	-1173.617065429688	-271.1658325195313	30.87476921081544	-1205.92578125	-300.8834228515626	629.3567504882814	-638.9658813476564	-243.0438690185547	606.0814819335939	-616.3684692382814	-214.7332611083985	626.6580200195314	-616.1065673828126	-218.4112701416016	523.0982666015626	-618.1486206054689	-142.5960388183594	436.9415588378907	-606.4920043945314	-117.0574188232422	440.998260498047	-712.1675415039064	-150.6879577636719	269.6046447753907	-648.0610961914064	-262.1156616210938	229.9063415527344	-644.1881103515626	-217.4534606933594	214.8183746337891	-647.1559448242189	-220.6885528564454	167.0460662841797	-680.4147338867189	-336.5364685058594	87.31898498535158	-687.7575073242189	-284.6307678222657	89.66905975341798	-756.1901855468751	-379.1791076660157	40.15959930419923	-770.8855590820315	-181.7415313720703	47.17025375366212	-677.8927612304689	-201.3315124511719	52.67565917968751	-635.4223632812501	-258.2231140136719	35.26085662841798	-609.0808105468751	
344	1.715	-55.5765838623047	1469.794921875	-925.0080566406252	-212.9860076904297	1410.56884765625	-978.485290527344	-196.8352050781251	1401.247436523438	-833.4166259765627	-261.4413146972657	1279.607666015625	-898.0315551757815	-388.8592529296876	1027.9873046875	-883.9959716796877	-138.470458984375	1197.698608398438	-918.139343261719	-172.9407501220703	1251.832153320313	-1078.316284179688	-236.9930877685547	1114.211547851563	-1265.86962890625	-211.2538604736329	1071.779663085938	-1251.163940429688	-238.4376220703126	1053.888793945313	-1301.007080078125	-246.5933837890626	991.1126708984377	-1320.47900390625	-329.6255493164063	995.7841796875002	-1317.813354492188	-353.8045043945313	785.8845214843752	-1131.140380859375	-298.7882080078126	749.9046630859376	-1163.1962890625	-332.4044799804688	778.4045410156252	-1063.18359375	-137.0347442626953	1238.076049804688	-754.6010742187501	-138.3312225341797	1095.442749023438	-580.9910278320314	-133.2733917236328	1049.429565429688	-594.3417358398439	-143.0646514892578	1042.3505859375	-535.4837646484376	-150.7025451660157	971.5376586914065	-506.5158081054689	-231.8718719482422	978.4606933593752	-484.7532958984376	-273.8612670898438	779.5709228515627	-665.5509643554689	-213.0340576171876	742.6162109375001	-653.2564697265626	-263.4350585937501	766.1357421875001	-738.1759033203126	-343.9290771484376	797.5688476562502	-1003.653991699219	-311.1673889160157	809.2700805664065	-759.9993896484376	-469.3747863769532	904.0747070312502	-869.2349853515627	-497.5783691406251	880.0115966796877	-893.1702880859377	-486.1572265625001	880.5671997070315	-836.2160644531252	-305.8044738769532	625.3951416015626	-1163.691162109375	-234.5861358642579	588.6870117187501	-1198.359252929688	-197.1146545410157	613.6669921875001	-1179.49072265625	-224.8464050292969	528.5831909179689	-1203.930908203125	-195.5960540771485	479.5594482421876	-1210.306274414063	-152.4372253417969	463.561737060547	-1113.006713867188	-183.4272613525391	293.4599609375001	-1148.5029296875	-258.3695678710938	269.9554443359376	-1192.5830078125	-220.5374145507813	254.8262634277344	-1173.912353515625	-247.637680053711	184.727767944336	-1132.407836914063	-372.1326293945313	84.13408660888673	-1121.262084960938	-312.5447082519532	95.6521453857422	-1062.051513671875	-406.3519287109376	43.29185485839844	-1056.822143554688	-205.6115264892579	45.95941925048829	-1124.515258789063	-216.6609039306641	50.30802536010744	-1173.56982421875	-271.5515441894532	31.22246551513673	-1205.909545898438	-301.0305786132813	628.7473754882814	-638.8077392578126	-242.9998779296876	605.6209106445314	-616.2418823242189	-214.8310089111329	626.2320556640626	-615.9080200195314	-218.3349914550782	522.5403442382814	-617.8029174804689	-142.6211395263672	436.6033630371095	-606.4492187500001	-116.8115921020508	440.7811279296876	-711.9707031250001	-150.4869995117188	269.5440673828126	-647.8718261718751	-261.9882202148438	229.8152313232422	-644.1266479492189	-217.3538818359376	214.6925506591797	-647.0957031250001	-220.6041412353516	166.990707397461	-680.3682861328126	-336.5223999023438	87.29274749755861	-687.7808837890626	-284.6031799316407	89.63121795654298	-756.2202148437501	-379.2675476074219	40.16671752929688	-770.924743652344	-181.225570678711	47.69674682617188	-677.4772338867189	-201.1114654541016	52.74979400634767	-635.3664550781251	-258.2571411132813	35.25279235839844	-609.0656738281251	
345	1.72	-55.18027877807619	1468.543212890625	-924.9229736328127	-212.4766540527344	1408.8876953125	-978.5381469726565	-196.1986846923829	1399.728393554688	-833.3344726562502	-260.9056091308594	1278.4248046875	-898.1123657226565	-388.7673339843751	1027.015625	-883.972106933594	-137.9778137207032	1196.373291015625	-918.178405761719	-172.3241271972657	1250.435913085938	-1078.167846679688	-236.2698669433594	1113.078735351563	-1266.011596679688	-210.7180633544922	1070.504150390625	-1251.110961914063	-237.7019653320313	1052.628051757813	-1300.932495117188	-246.3235778808594	990.018493652344	-1320.41650390625	-329.3264465332032	994.829284667969	-1317.981689453125	-353.8095092773438	785.1312255859377	-1131.045654296875	-299.0241394042969	749.3278808593751	-1163.087646484375	-332.7682800292969	777.6941528320315	-1063.061889648438	-136.4746246337891	1236.713989257813	-754.6749267578126	-137.7154541015625	1094.277954101563	-580.9963989257814	-132.9627838134766	1048.019653320313	-594.1832885742189	-142.5460205078125	1041.1943359375	-535.3966674804689	-150.3533477783203	970.1959228515627	-506.392547607422	-231.307113647461	977.4273681640627	-484.5160522460939	-272.7848205566407	779.091003417969	-665.9896850585939	-213.2140045166016	741.5884399414064	-653.2552490234376	-264.2298889160157	765.0203247070314	-738.5979003906251	-344.1725769042969	796.537536621094	-1003.694885253906	-311.4350585937501	808.3594970703127	-759.9651489257814	-469.5231323242189	903.2832031250002	-869.184509277344	-497.8986206054689	879.0941162109377	-893.0223388671877	-486.3237915039064	879.7325439453127	-836.3198242187502	-305.8706054687501	624.9652709960939	-1163.827026367188	-235.0804443359376	588.8626098632814	-1198.489868164063	-197.1709747314454	613.3720703125001	-1179.586303710938	-224.8861694335938	528.3326416015626	-1204.164428710938	-195.4024658203126	479.3970336914064	-1210.590087890625	-152.5165405273438	463.4334106445314	-1113.289794921875	-183.3018798828125	293.2007446289063	-1148.586547851563	-258.2149047851563	269.8021240234376	-1192.728515625	-220.4281616210938	254.7997436523438	-1174.106689453125	-247.544174194336	184.6692657470703	-1132.321044921875	-372.1415405273438	84.07601165771486	-1121.300415039063	-312.5486145019532	95.56788635253908	-1062.020141601563	-406.3665161132814	43.25587844848634	-1056.820190429688	-205.5909881591797	46.00327301025391	-1124.502563476563	-216.665512084961	50.27502441406251	-1173.599731445313	-271.1847534179688	30.86650848388673	-1205.884155273438	-301.1201171875001	628.1497802734376	-638.7449340820314	-243.0290985107422	605.2072143554689	-616.0398559570314	-214.9634704589844	625.8088378906251	-615.6445922851564	-218.2547607421876	522.0068969726564	-617.5643920898439	-142.2124633789063	436.5884704589845	-606.0417480468751	-116.457260131836	440.6160888671876	-711.7979125976564	-150.296615600586	269.2586669921876	-647.9457397460939	-261.8427124023438	229.7058410644532	-644.0179443359376	-217.2930603027344	214.5190429687501	-647.1683959960939	-220.5869293212891	166.88623046875	-680.2695922851564	-336.4937133789063	87.27417755126955	-687.7481079101564	-284.5592041015626	89.59819793701173	-756.2301025390626	-379.2123718261719	40.21031570434571	-770.8928833007815	-181.275146484375	47.74361038208009	-677.4819946289064	-201.0956573486329	52.73605728149415	-635.4014892578126	-258.2283325195313	35.25268936157227	-609.0846557617189	
